<?xml version="1.0" standalone="no"?><!DOCTYPE svg PUBLIC "-//W3C//DTD SVG 1.1//EN" "http://www.w3.org/Graphics/SVG/1.1/DTD/svg11.dtd"><svg width="100%" height="100%" viewBox="0 0 185 185" version="1.1" xmlns="http://www.w3.org/2000/svg" xmlns:xlink="http://www.w3.org/1999/xlink" xml:space="preserve" style="fill-rule:evenodd;clip-rule:evenodd;stroke-linejoin:round;stroke-miterlimit:1.41421;"><clipPath id="_clip1"><rect id="Front Square Blue" x="0.08" y="0.099" width="184.252" height="184.252"/></clipPath><g clip-path="url(#_clip1)"><rect x="-1.5" y="-2.39" width="191.367" height="192.765" style="fill:#00bdf2;"/><path d="M123.173,143.662l17.158,0l-8.704,-25.36l-8.454,25.36ZM104.76,164.252l0,-2.678l3.096,0c3.237,0 5.58,-2.037 7.031,-6.11l18.162,-50.805l2.093,0l18.162,53.232c1.005,2.455 2.679,3.683 5.022,3.683l4.687,0l0,2.678l-25.946,0l0,-2.678l5.524,0c0.837,0 1.534,-0.21 2.092,-0.628c0.558,-0.419 0.837,-0.907 0.837,-1.465c0,-0.725 -0.111,-1.339 -0.334,-1.841l-3.767,-10.964l-19.334,0l-1.925,5.44c-0.781,2.232 -1.172,3.906 -1.172,5.022c0,1.172 0.321,2.204 0.963,3.097c0.641,0.892 1.743,1.339 3.306,1.339l4.436,0l0,2.678l-22.933,0Z" style="fill:#000;fill-rule:nonzero;"/></g></svg>